PathFileType	4	(X/Y/Z)	Run_400 01
DataRate	CameraRate	NumFrames	NumMarkers	Units	OrigDataRate	OrigDataStartFrame	OrigNumFrames
120	120	4	41	mm	120	164	125
Frame#	Time	LASI			RASI			LPSI			RPSI			RTH1			RTH3			LTH1			LTH2			LTH3			RTB1			RTB2			RTB3			LTB1			LTB2			LTB3			RCAL			RTOE			RMT5			LCAL			LTOE			LMT5			LACR			RACR			CLAV			C7			RUA1			RUA2			RUA3			RLEL			RMEL			LUA1			LUA2			LUA3			LLEL			LMEL			RFAsuperior			RFAradius			RFAulna			LFAsuperior			LFAradius			LFAulna			
		X1	Y1	Z1	X2	Y2	Z2	X3	Y3	Z3	X4	Y4	Z4	X5	Y5	Z5	X6	Y6	Z6	X7	Y7	Z7	X8	Y8	Z8	X9	Y9	Z9	X10	Y10	Z10	X11	Y11	Z11	X12	Y12	Z12	X13	Y13	Z13	X14	Y14	Z14	X15	Y15	Z15	X16	Y16	Z16	X17	Y17	Z17	X18	Y18	Z18	X19	Y19	Z19	X20	Y20	Z20	X21	Y21	Z21	X22	Y22	Z22	X23	Y23	Z23	X24	Y24	Z24	X25	Y25	Z25	X26	Y26	Z26	X27	Y27	Z27	X28	Y28	Z28	X29	Y29	Z29	X30	Y30	Z30	X31	Y31	Z31	X32	Y32	Z32	X33	Y33	Z33	X34	Y34	Z34	X35	Y35	Z35	X36	Y36	Z36	X37	Y37	Z37	X38	Y38	Z38	X39	Y39	Z39	X40	Y40	Z40	X41	Y41	Z41	

158	1.65	990.1466370000001	1017.7946	-444.457393	987.093304	1038.307031	-215.267615	834.225997	1077.950847	-390.120773	821.073808	1081.346854	-293.449032	978.516435	902.038768	-157.758564	1135.316245	700.115676	-219.091721	864.506138	846.8115759999999	-503.855808	847.503289	734.594967	-471.963891	721.51359	678.953241	-445.426834	1202.96694	500.450364	-282.683411	1158.250055	453.872872	-212.423966	1151.042434	387.018702	-277.060701	624.486596	468.261701	-362.493531	543.508523	435.728077	-434.034577	510.927226	339.677447	-362.773222	1004.097827	247.684501	-264.16822	1207.58659	201.100851	-302.721546	1192.326008	195.983088	-206.832202	364.625624	316.890254	-363.631624	448.366387	137.830818	-298.3395	409.955102	113.754785	-375.937958	1008.895478	1497.491644	-494.207324	862.872394	1498.886517	-140.728976	985.789711	1484.068202	-272.211994	884.213481	1543.701758	-349.606528	748.514495	1418.888671	-109.179645	698.638183	1442.901808	-161.263788	671.084279	1374.475687	-99.923663	604.88073	1336.541044	-98.456828	595.766433	1323.678786	-180.27006	980.507176	1374.024318	-574.6507790000001	915.855462	1333.449888	-599.728988	984.536402	1291.143732	-598.792493	949.373274	1217.775766	-638.716718	876.948346	1209.808475	-586.279493	644.483213	1215.208607	-86.07149200000001	681.452996	1102.433752	-125.170796	622.734393	1088.893484	-89.534128	1041.760002	1207.101933	-546.222861	1068.438634	1237.242691	-426.307615	1109.355696	1188.700956	-455.691797	
159	1.658333	990.8877660000001	1020.966896	-443.79262	988.1597410000001	1039.342941	-215.097999	835.836632	1083.264326	-390.311393	822.1953600000001	1085.742432	-293.221542	977.854681	900.953621	-158.48665	1133.039846	698.874878	-219.806643	863.83754	851.546252	-504.408905	846.584177	739.391777	-473.628919	721.208068	682.893705	-447.41128	1209.688389	497.925981	-285.089689	1170.298563	446.91578	-214.737258	1168.375194	380.4033	-280.493256	616.788863	475.354771	-363.351907	537.765633	444.748865	-436.447174	497.094286	352.84661	-364.213928	1034.855971	227.480356	-268.61155	1241.38702	200.663472	-309.867346	1227.581984	190.806876	-214.548538	350.143434	338.022266	-368.206991	422.135386	154.032898	-302.061779	384.849623	133.298054	-381.495898	1010.625484	1500.737468	-493.674689	860.633634	1501.71946	-142.196053	985.427499	1486.865723	-271.680045	884.229278	1546.209594	-350.465253	745.668354	1423.073199	-111.594509	696.773865	1447.126643	-164.838238	667.643179	1379.88185	-102.938259	601.34565	1342.111419	-102.161429	592.7557849999999	1329.015556	-183.994155	983.423057	1377.73152	-574.689212	918.97939	1337.57643	-601.030924	987.857004	1295.070525	-599.963559	952.21279	1221.80903	-639.6813959999999	879.1716280000001	1214.091377	-588.627646	641.923421	1221.18931	-89.351088	680.306609	1108.605742	-128.216963	621.612153	1094.62233	-92.831416	1042.558984	1211.781411	-545.152562	1067.246195	1242.517625	-424.78623	1108.476804	1193.78704	-453.259309	
160	1.666667	991.196277	1024.252577	-443.622138	988.497448	1039.656831	-215.578272	836.815113	1087.766557	-390.302173	822.641167	1088.929755	-292.903137	976.184227	898.619597	-159.241361	1130.134391	696.2526	-219.717873	863.414726	856.031826	-504.839094	847.585899	742.821543	-474.139724	722.926773	684.877981	-449.562994	1214.758516	494.228827	-286.754153	1179.807253	439.386055	-217.067235	1183.912297	373.884694	-283.799613	610.881575	481.272608	-365.105642	532.022568	454.039315	-438.87429	484.137886	366.249122	-366.340094	1064.318621	208.829246	-273.612604	1271.989169	202.450165	-317.104419	1260.040757	187.568473	-222.418331	335.800506	359.832557	-372.4748	396.79238	172.321969	-305.566853	361.519698	154.343394	-386.902643	1012.126049	1503.115133	-493.341429	858.853505	1503.957915	-143.557549	985.250851	1489.118444	-271.417971	884.4951589999999	1548.372705	-351.272174	743.36927	1426.377461	-113.929954	695.331419	1450.259204	-168.241909	664.8126150000001	1384.31416	-105.845297	598.492849	1346.555693	-105.709741	590.4666089999999	1333.144837	-187.4384	985.770652	1380.456185	-574.863138	921.4394569999999	1340.659965	-602.186581	990.517128	1298.105161	-601.3298160000001	954.295792	1224.914568	-640.41805	880.711757	1217.548012	-590.539417	640.022271	1226.04519	-92.376167	679.7072470000001	1113.656467	-131.076769	621.0877840000001	1099.331042	-95.77342400000001	1042.838173	1215.149998	-544.269736	1065.96165	1246.195882	-423.561091	1107.305722	1197.294606	-451.348409	
161	1.675	991.359008	1027.53122	-443.936333	988.17535	1039.586845	-216.716052	837.18359	1091.232521	-390.003244	822.679917	1090.73514	-292.570322	973.9015429999999	896.086108	-159.9892	1125.859314	692.000791	-219.66201	863.566106	860.0584710000001	-505.155973	850.361716	744.656883	-473.358398	726.496315	685.104833	-451.709399	1218.009456	489.585904	-288.305711	1186.815348	431.284314	-219.820146	1197.115633	367.446151	-287.16907	607.009133	486.003594	-367.985206	526.326305	464.112755	-441.334161	472.706214	379.856083	-369.494787	1091.623502	191.972166	-278.839802	1298.36327	206.325192	-324.471756	1288.988036	186.835743	-230.322857	322.912349	382.406034	-376.761211	373.474894	192.34445	-309.379108	340.064377	176.399669	-392.106031	1013.367455	1504.680711	-493.168879	857.641988	1505.657023	-144.791838	985.211357	1490.809959	-271.499988	884.896318	1550.076556	-351.946579	741.693868	1428.885288	-116.144911	694.440032	1452.383215	-171.485224	662.691319	1387.763519	-108.66994	596.395473	1349.888743	-109.067027	589.035045	1336.084879	-190.595032	987.468237	1382.272192	-575.117062	923.129095	1342.809978	-603.070305	992.428884	1300.333021	-602.811006	955.580372	1227.120422	-640.9408529999999	881.539165	1220.231566	-591.9333810000001	638.816647	1229.76121	-95.153418	679.7002189999999	1117.600511	-133.622019	621.112951	1102.939206	-98.42261000000001	1042.653335	1217.084414	-543.564058	1064.559911	1248.230345	-422.682586	1105.891867	1199.045652	-449.862406	
